/* XPM */
static char * audio_xpm[] = {
"16 16 7 1",
" 	c None",
".	c #707070",
"+	c #E8E8E8",
"@	c #FFFFFF",
"#	c #000000",
"$	c #898989",
"%	c #636363",
"  .........     ",
"  .+++++++..    ",
"  .+++++++.@.   ",
"  .++++++#.@@.  ",
"  .++++++#....$ ",
"  .++++++#+$$%$ ",
"  .++++++#+++.$ ",
"  .++++++#+++.$ ",
"  .++++++#+++.$ ",
"  .++++###+++.$ ",
"  .+++####+++.$ ",
"  .+++####+++.$ ",
"  .++++##++++.$ ",
"  .++++++++++.$ ",
"  ............$ ",
"   $$$$$$$$$$$$ "};
