/* XPM */
static char * c_xpm[] = {
"16 16 16 1",
" 	c None",
".	c #707070",
"+	c #E8E8E8",
"@	c #FFFFFF",
"#	c #B1B2B9",
"$	c #ADADAD",
"%	c #D5D6D8",
"&	c #55596B",
"*	c #43475B",
"=	c #898989",
"-	c #636363",
";	c #7A7C8A",
">	c #9EA0A9",
",	c #C3C4C9",
"'	c #676A7A",
")	c #8C8E9A",
"  .........     ",
"  .+++++++..    ",
"  .+++++++.@.   ",
"  .+++++++.@@.  ",
"  .++++###....$ ",
"  .++%&****==-$ ",
"  .++&**;&**%.$ ",
"  .+#**>+%#++.$ ",
"  .+#**#+++++.$ ",
"  .+,**;+;*;,.$ ",
"  .++'*****&+.$ ",
"  .++%)***)%+.$ ",
"  .++++++++++.$ ",
"  .++++++++++.$ ",
"  ............$ ",
"   $$$$$$$$$$$$ "};
