/* XPM */
static char * deadobject_xpm[] = {
"16 16 155 2",
"  	c None",
". 	c #4E4B47",
"+ 	c #4E4A44",
"@ 	c #4E4942",
"# 	c #4E4940",
"$ 	c #4E483E",
"% 	c #4E483D",
"& 	c #5D5A55",
"* 	c #66615B",
"= 	c #686259",
"- 	c #746C5F",
"; 	c #887D6B",
"> 	c #968974",
", 	c #94866E",
"' 	c #8F8168",
") 	c #877A63",
"! 	c #4E463A",
"~ 	c #5D5954",
"{ 	c #545049",
"] 	c #6F685C",
"^ 	c #827867",
"/ 	c #9A8D76",
"( 	c #A39377",
"_ 	c #A49376",
": 	c #9F8E70",
"< 	c #948469",
"[ 	c #8B7C64",
"} 	c #4E4639",
"| 	c #5D5953",
"1 	c #5B564E",
"2 	c #6D6558",
"3 	c #9C8F7A",
"4 	c #A4947A",
"5 	c #AB997B",
"6 	c #B29E7C",
"7 	c #BEA883",
"8 	c #B8A37F",
"9 	c #A69374",
"0 	c #9C8B70",
"a 	c #676157",
"b 	c #766D5F",
"c 	c #837865",
"d 	c #A9997D",
"e 	c #BAA685",
"f 	c #CBB48C",
"g 	c #D5BC91",
"h 	c #D6BD92",
"i 	c #CAB38C",
"j 	c #BBA785",
"k 	c #AD9C80",
"l 	c #4E473B",
"m 	c #5D5952",
"n 	c #615B51",
"o 	c #70675A",
"p 	c #847966",
"q 	c #8D7F67",
"r 	c #C3AE8A",
"s 	c #D4BB92",
"t 	c #DBC195",
"u 	c #DFC599",
"v 	c #DEC498",
"w 	c #CEB892",
"x 	c #C1AD8D",
"y 	c #B6A68B",
"z 	c #5D5851",
"A 	c #5D574E",
"B 	c #6C6456",
"C 	c #847967",
"D 	c #8B7D66",
"E 	c #AC9A7C",
"F 	c #B4A07E",
"G 	c #C3AD88",
"H 	c #C1AC8A",
"I 	c #B7A587",
"J 	c #AC9D85",
"K 	c #655D50",
"L 	c #59544B",
"M 	c #675F53",
"N 	c #7E7462",
"O 	c #887B66",
"P 	c #A9987C",
"Q 	c #AE9C7D",
"R 	c #B29E7D",
"S 	c #B8A482",
"T 	c #C0AB89",
"U 	c #C3AF8C",
"V 	c #C1AE8F",
"W 	c #B4A58C",
"X 	c #565048",
"Y 	c #625B50",
"Z 	c #7C7261",
"` 	c #857967",
" .	c #A5967B",
"..	c #A7967A",
"+.	c #B09E80",
"@.	c #B6A384",
"#.	c #B9A789",
"$.	c #B9A88C",
"%.	c #B4A58D",
"&.	c #655D51",
"*.	c #5D5850",
"=.	c #565149",
"-.	c #5F584E",
";.	c #756B5C",
">.	c #A5977F",
",.	c #A5977E",
"'.	c #A8987E",
").	c #AC9C81",
"!.	c #B2A186",
"~.	c #B7A78C",
"{.	c #B7A78D",
"].	c #B6A78E",
"^.	c #655E52",
"/.	c #5E584E",
"(.	c #6B6357",
"_.	c #7E7463",
":.	c #A4967F",
"<.	c #A99A81",
"[.	c #B1A188",
"}.	c #B7A78E",
"|.	c #B4A791",
"1.	c #655E54",
"2.	c #5D574D",
"3.	c #665F54",
"4.	c #726A5C",
"5.	c #998E7C",
"6.	c #9D917D",
"7.	c #A3967F",
"8.	c #A59780",
"9.	c #A59881",
"0.	c #A99C86",
"a.	c #AFA28C",
"b.	c #A59A88",
"c.	c #655F55",
"d.	c #6D665A",
"e.	c #8F8575",
"f.	c #928877",
"g.	c #968B7A",
"h.	c #9A8F7E",
"i.	c #9F9481",
"j.	c #A09583",
"k.	c #9C9281",
"l.	c #958C7D",
"m.	c #655F57",
"n.	c #8D8476",
"o.	c #8E8577",
"p.	c #8F8677",
"q.	c #948B7B",
"r.	c #968D7E",
"s.	c #91897B",
"t.	c #90887C",
"u.	c #656059",
"v.	c #655F56",
"w.	c #656058",
"x.	c #65605A",
"    . + @ # $ % % %             ",
"  & * = - ; > , ' ) !           ",
"  ~ { ] ^ / ( _ : < [ }         ",
"  | 1 2 3 4 5 6 7 8 9 0 !       ",
"  | a b c d e f g h i j k l     ",
"  m n o p q r s t u v w x y %   ",
"  z A B C D E F 8 7 G H I J K   ",
"  z L M N O P Q R S T U V W K   ",
"  z X Y Z `  ...5 +.@.#.$.%.&.  ",
"  *.=.-.;.C >.,.'.).!.~.{.].^.  ",
"    A /.(._.:.>.,.,.<.[.}.|.1.  ",
"      2.3.4.5.6.7.8.9.0.a.b.c.  ",
"        2.d.e.f.g.h.i.j.k.l.m.  ",
"          A n.o.n.p.q.r.s.t.u.  ",
"            m.v.m.m.m.m.w.x.    ",
"                                "};
