/* XPM */
static char * design_xpm[] = {
"16 16 11 1",
" 	c None",
".	c #59534B",
"+	c #DEE7B5",
"@	c #FFB59C",
"#	c #ADADAD",
"$	c #C3C99F",
"%	c #E5A490",
"&	c #DED6AD",
"*	c #FF8C84",
"=	c #C6BE9B",
"-	c #E57D79",
"                ",
" .............. ",
" .+++.@@@@@@@@.#",
" .+++.@@@@@@@@.#",
" .+++.@@@@@@@@.#",
" .+++.@@@@@@@@.#",
" .+++.@@@@@@@@.#",
" .+++.@@@@@@@@.#",
" .$$$.%%%%%%%%.#",
" ..............#",
" .&&&.********.#",
" .&&&.********.#",
" .&&&.********.#",
" .===.--------.#",
" ..............#",
"  ##############"};
