/* XPM */
static char * document_xpm[] = {
"16 16 6 1",
" 	c None",
".	c #707070",
"+	c #E8E8E8",
"@	c #FFFFFF",
"#	c #898989",
"$	c #636363",
"  .........     ",
"  .+++++++..    ",
"  .+++++++.@.   ",
"  .+++++++.@@.  ",
"  .+++++++....# ",
"  .++++++++##$# ",
"  .++++++++++.# ",
"  .++++++++++.# ",
"  .++++++++++.# ",
"  .++++++++++.# ",
"  .++++++++++.# ",
"  .++++++++++.# ",
"  .++++++++++.# ",
"  .++++++++++.# ",
"  ............# ",
"   ############ "};
