/* XPM */
static char * folder_xpm[] = {
"16 16 9 1",
" 	c None",
".	c #A0997B",
"+	c #EFE5BA",
"@	c #EFE3AE",
"#	c #ADADAD",
"$	c #EDE09E",
"%	c #918A67",
"&	c #EADF93",
"*	c #777155",
"                ",
"  ....          ",
" .++++.         ",
".++++++........ ",
".@@@@@@@@@@@@@.#",
".@@@@@@@@@@@@@.#",
".$$$$$$$$$$$$$.#",
".$$$$$$$$$$$$$.#",
"%$$$$$$$$$$$$$%#",
"%&&&&&&&&&&&&&%#",
"%&&&&&&&&&&&&&%#",
"*&&&&&&&&&&&&&*#",
"***************#",
" ###############",
"                ",
"                "};
