/* XPM */
static char * h_xpm[] = {
"16 16 15 1",
" 	c None",
".	c #707070",
"+	c #E8E8E8",
"@	c #FFFFFF",
"#	c #8C8382",
"$	c #AAA5A4",
"%	c #5E514F",
"&	c #ADADAD",
"*	c #BAB5B5",
"=	c #C9C6C6",
"-	c #898989",
";	c #636363",
">	c #7C7271",
",	c #6D6260",
"'	c #9B9493",
"  .........     ",
"  .+++++++..    ",
"  .+++++++.@.   ",
"  .++##$++.@@.  ",
"  .++%%#++....& ",
"  .++%%#+*=--;& ",
"  .++%%>,%%'+.& ",
"  .++%%%#%%%+.& ",
"  .++%%>+#%%+.& ",
"  .++%%#+#%%+.& ",
"  .++%%#+#%%+.& ",
"  .++%%#+#%%+.& ",
"  .++%%#+#%%+.& ",
"  .++++++++++.& ",
"  ............& ",
"   &&&&&&&&&&&& "};
