/* XPM */
static char * image_xpm[] = {
"16 16 11 1",
" 	c None",
".	c #707070",
"+	c #E8E8E8",
"@	c #AFC2D6",
"#	c #FFFFFF",
"$	c #B2CFE8",
"%	c #ADADAD",
"&	c #898989",
"*	c #636363",
"=	c #8FAD90",
"-	c #89BF8B",
"  .........     ",
"  .+++++++..    ",
"  .+@@@@@@.#.   ",
"  .+@@@@@@.##.  ",
"  .+@@@@$@....% ",
"  .+@$@@@@$&&*% ",
"  .+$@$@$@$@+.% ",
"  .+@$@$@$@$+.% ",
"  .+$$$$$$$$+.% ",
"  .+$$$====$+.% ",
"  .+========+.% ",
"  .+=-=-=-=-+.% ",
"  .+--------+.% ",
"  .++++++++++.% ",
"  ............% ",
"   %%%%%%%%%%%% "};
