/* XPM */
static char * invalid_xpm[] = {
"16 16 76 1",
" 	c None",
".	c #484848",
"+	c #4A4A4A",
"@	c #494949",
"#	c #474747",
"$	c #4B4B4B",
"%	c #E1E1E1",
"&	c #E9E9E9",
"*	c #E7E7E7",
"=	c #DFDFDF",
"-	c #D5D5D5",
";	c #505050",
">	c #707070",
",	c #D4D4D4",
"'	c #E3E3E3",
")	c #F0F0F0",
"!	c #F2F2F2",
"~	c #F1F1F1",
"{	c #EBEBEB",
"]	c #D3D3D3",
"^	c #B1B1B1",
"/	c #5D5D5D",
"(	c #D6D6D6",
"_	c #DBDBDB",
":	c #EEEEEE",
"<	c #EFEFEF",
"[	c #DCDCDC",
"}	c #C0C0C0",
"|	c #A1A1A1",
"1	c #565656",
"2	c #E4E4E4",
"3	c #F0C5C5",
"4	c #F5B4B4",
"5	c #F3DEDE",
"6	c #F1DCDC",
"7	c #F2B1B1",
"8	c #E9BFBF",
"9	c #D0D0D0",
"0	c #B5B5B5",
"a	c #9D9D9D",
"b	c #E5E5E5",
"c	c #F0DBDB",
"d	c #FF3D3D",
"e	c #FD5151",
"f	c #F4CACA",
"g	c #EED8D8",
"h	c #C3C3C3",
"i	c #A4A4A4",
"j	c #F6B5B5",
"k	c #C9C9C9",
"l	c #ABABAB",
"m	c #ACACAC",
"n	c #E0E0E0",
"o	c #EDEDED",
"p	c #FC6565",
"q	c #F98D8D",
"r	c #C5C5C5",
"s	c #D7D7D7",
"t	c #F1B1B1",
"u	c #FA7979",
"v	c #EEADAD",
"w	c #BEBEBE",
"x	c #A7A7A7",
"y	c #E8E8E8",
"z	c #CACACA",
"A	c #B3B3B3",
"B	c #A0A0A0",
"C	c #B2B2B2",
"D	c #B9B9B9",
"E	c #A3A3A3",
"F	c #BABABA",
"G	c #CBCBCB",
"H	c #D2D2D2",
"I	c #C8C8C8",
"J	c #B8B8B8",
"K	c #A9A9A9",
"    .++@++@     ",
"  #$%&&&*=-;#   ",
" #>,')!!~{]^/+  ",
" @(_{:)~<&[}|1  ",
"#22&345~67890a@ ",
"+b!<cdefedg_hi+ ",
"+b!~~jdddj!bkl+ ",
"+'!)~5ddd5~2km+ ",
"#n:o<pdqdpo=rm+ ",
"$s&*tdu!udv(wx+ ",
".,9[bo~)<y[zAB+ ",
" +Ch(=y*2[9DE1  ",
" +/EFGH,HIJi/+  ",
"  ++BK^A^l|++   ",
"    +++++++     ",
"                "};
