/* XPM */
static char * lambda_xpm[] = {
"16 16 58 1",
" 	c None",
".	c #707070",
"+	c #E8E8E8",
"@	c #E2DADA",
"#	c #D53D4E",
"$	c #D53E4F",
"%	c #E3DBDD",
"&	c #FFFFFF",
"*	c #D8A6AB",
"=	c #D98992",
"-	c #D77B84",
";	c #E6E7E6",
">	c #E5E3E3",
",	c #E4E4E5",
"'	c #D0626E",
")	c #E5E7E6",
"!	c #ADADAD",
"~	c #E5E5E6",
"{	c #D34757",
"]	c #E1CBCD",
"^	c #898989",
"/	c #636363",
"(	c #DFC5C7",
"_	c #D90A22",
":	c #DA808A",
"<	c #E7E7E7",
"[	c #D96674",
"}	c #D61128",
"|	c #D05865",
"1	c #E6E6E6",
"2	c #E2D6D6",
"3	c #D7132A",
"4	c #D86572",
"5	c #D6808B",
"6	c #DFC6C9",
"7	c #D80B21",
"8	c #E0C5C8",
"9	c #E1CACD",
"0	c #D97E88",
"a	c #E7E8E8",
"b	c #E3E0E2",
"c	c #D52337",
"d	c #D74C5B",
"e	c #CF5865",
"f	c #E0DBDD",
"g	c #D6929A",
"h	c #DA9BA2",
"i	c #D9081F",
"j	c #DAAEB4",
"k	c #E6E7E8",
"l	c #D5192D",
"m	c #D22D40",
"n	c #DDBDC1",
"o	c #DEA7AD",
"p	c #E6E4E4",
"q	c #E4E3E3",
"r	c #DC98A0",
"s	c #DEC5C7",
"  .........     ",
"  .+++++++..    ",
"  .+@#$%++.&.   ",
"  .+*=-=;+.&&.  ",
"  .+>;,')+....! ",
"  .+++~{]++^^/! ",
"  .+++(_:<+++.! ",
"  .++<[}|1+++.! ",
"  .++23456+++.! ",
"  .++:7890aa+.! ",
"  .+bcd<1efg+.! ",
"  .+hij<k=lm+.! ",
"  .+nop++qrs+.! ",
"  .++++++++++.! ",
"  ............! ",
"   !!!!!!!!!!!! "};
