/* XPM */
static char * object_xpm[] = {
"16 16 133 2",
"  	c None",
". 	c #3A6A33",
"+ 	c #40517A",
"@ 	c #4C804C",
"# 	c #4E824E",
"$ 	c #589158",
"% 	c #68A968",
"& 	c #72BB72",
"* 	c #6FBA6F",
"= 	c #6CB36C",
"- 	c #66A866",
"; 	c #155493",
"> 	c #538B53",
", 	c #64A164",
"' 	c #74C074",
") 	c #7BCC7B",
"! 	c #7ECA7E",
"~ 	c #7AC57A",
"{ 	c #70B970",
"] 	c #69AE69",
"^ 	c #1A5F9D",
"/ 	c #1D71BD",
"( 	c #76C276",
"_ 	c #7BCE7B",
": 	c #7FD77F",
"< 	c #83E283",
"[ 	c #8DEF8D",
"} 	c #8CE48C",
"| 	c #7DD07D",
"1 	c #75C375",
"2 	c #1B68B4",
"3 	c #1F77CE",
"4 	c #2087E6",
"5 	c #7FD47F",
"6 	c #8CE88C",
"7 	c #98FE98",
"8 	c #ABFFAB",
"9 	c #ADFFAD",
"0 	c #A2F2A2",
"a 	c #93E493",
"b 	c #82D982",
"c 	c #1864AB",
"d 	c #1E72C3",
"e 	c #2085E9",
"f 	c #2190F9",
"g 	c #92F492",
"h 	c #A9FFA9",
"i 	c #B8FFB8",
"j 	c #BFFFBF",
"k 	c #BDFFBD",
"l 	c #ABF1AB",
"m 	c #9AE99A",
"n 	c #89E489",
"o 	c #1660A4",
"p 	c #1E6EBB",
"q 	c #218EF5",
"r 	c #FF7759",
"s 	c #FF8E6A",
"t 	c #FF9972",
"u 	c #FFAA7D",
"v 	c #FFB387",
"w 	c #FFB483",
"x 	c #F99B76",
"y 	c #F88161",
"z 	c #AE2D1D",
"A 	c #165B9C",
"B 	c #1B6AB4",
"C 	c #2082DD",
"D 	c #208AF0",
"E 	c #FF7253",
"F 	c #FF7F5D",
"G 	c #FF8D65",
"H 	c #FF9E72",
"I 	c #FFB282",
"J 	c #FFB988",
"K 	c #FFB584",
"L 	c #FF8D69",
"M 	c #145898",
"N 	c #1963AC",
"O 	c #207FD8",
"P 	c #2087EA",
"Q 	c #FF6A4C",
"R 	c #FF6E50",
"S 	c #FF7757",
"T 	c #FF8862",
"U 	c #FF996E",
"V 	c #FF9F73",
"W 	c #FF9C74",
"X 	c #FF906A",
"Y 	c #145899",
"Z 	c #1861A7",
"` 	c #1F74CB",
" .	c #2087E9",
"..	c #FF674C",
"+.	c #FF694C",
"@.	c #FF6D52",
"#.	c #FF7A5A",
"$.	c #FF8A65",
"%.	c #FF966F",
"&.	c #FF9870",
"*.	c #FF946E",
"=.	c #1660A6",
"-.	c #1C6CBA",
";.	c #2080DD",
">.	c #FD674C",
",.	c #FF7553",
"'.	c #FF8B64",
").	c #FD906B",
"!.	c #1968B4",
"~.	c #1F77C6",
"{.	c #EB6048",
"].	c #F1624A",
"^.	c #FB674C",
"/.	c #FF7353",
"(.	c #FD8061",
"_.	c #F17859",
":.	c #1A70C0",
"<.	c #DC5943",
"[.	c #E15B44",
"}.	c #E65E47",
"|.	c #EB614A",
"1.	c #F4634A",
"2.	c #F6644B",
"3.	c #ED634B",
"4.	c #E45D46",
"5.	c #DA5740",
"6.	c #DA5842",
"7.	c #D95841",
"8.	c #DC5942",
"9.	c #E35C45",
"0.	c #E65E46",
"a.	c #E05B43",
"b.	c #DF5942",
"    . . . . . . . .             ",
"  + @ # $ % & * = - .           ",
"  + ; > , ' ) ! ~ { ] .         ",
"  + ^ / ( _ : < [ } | 1 .       ",
"  + 2 3 4 5 6 7 8 9 0 a b .     ",
"  + c d e f g h i j k l m n .   ",
"  + o p e q r s t u v w x y z   ",
"  + A B C D E F G H I J K L z   ",
"  + M N O P Q R S T U V W X z   ",
"  + Y Z `  ...+.@.#.$.%.&.*.z   ",
"    + =.-.;.>.....Q ,.'.&.).z   ",
"      + !.~.{.].^...../.(._.z   ",
"        + :.<.[.}.|.1.2.3.4.z   ",
"          + 5.6.7.8.9.0.a.b.z   ",
"            z z z z z z z z     ",
"                                "};
