/* XPM */
static char * pyramid_xpm[] = {
"16 16 81 1",
" 	c None",
".	c #C6C7C9",
"+	c #767E8F",
"@	c #A5A8AF",
"#	c #D5D5D5",
"$	c #B2B4B9",
"%	c #476285",
"&	c #265F9D",
"*	c #315079",
"=	c #CBCBCD",
"-	c #8D939F",
";	c #3D6797",
">	c #3D85D0",
",	c #286DB7",
"'	c #215894",
")	c #7B8493",
"!	c #DADADA",
"~	c #68788F",
"{	c #3F76AF",
"]	c #509BE6",
"^	c #2B70BA",
"/	c #2C4F7B",
"(	c #C6C6C8",
"_	c #B4B7BC",
":	c #4A678C",
"<	c #4481BE",
"[	c #529EEA",
"}	c #3E84CD",
"|	c #225A96",
"1	c #717B8F",
"2	c #9299A6",
"3	c #3F6C9D",
"4	c #4686C6",
"5	c #4E98E3",
"6	c #2A6FB8",
"7	c #274D7B",
"8	c #BEBFC2",
"9	c #949596",
"0	c #3A6799",
"a	c #367EC8",
"b	c #225B98",
"c	c #67758A",
"d	c #949494",
"e	c #415C7D",
"f	c #4994DF",
"g	c #254E7F",
"h	c #B7B9BE",
"i	c #9A9A9A",
"j	c #666D7B",
"k	c #4889CB",
"l	c #337AC4",
"m	c #225B99",
"n	c #5D6D86",
"o	c #919398",
"p	c #345F8E",
"q	c #4690DB",
"r	c #224E82",
"s	c #ADB0B6",
"t	c #D3D3D4",
"u	c #40587B",
"v	c #2762A0",
"w	c #2566AC",
"x	c #286DAE",
"y	c #516581",
"z	c #6F7686",
"A	c #255083",
"B	c #215085",
"C	c #214F85",
"D	c #263D61",
"E	c #C7C8CA",
"F	c #CBCBCC",
"G	c #A9ACB2",
"H	c #C5C8D1",
"I	c #C9CCD4",
"J	c #CDD0D7",
"K	c #CFD1D9",
"L	c #D7D9DF",
"M	c #D9DBE1",
"N	c #DEDFE4",
"O	c #DFE1E5",
"P	c #E8E9EC",
"                ",
"       .+@      ",
"     #$%&*=     ",
"    #-;>,')!    ",
"   =~{]^,,/(    ",
" #_:<[},,,|1#   ",
"#234[56,,,,78   ",
"90[[[a,,,,,bc#  ",
"de[[f,,,,,,,gh  ",
"ijk[l,,,,,,,mn# ",
" opq,,,,,,,,,rs!",
" tuvw,,,,,,,,xy#",
"  zABBBBBBBBBCDE",
"  FGHIJKLLMMNOP#",
"                ",
"                "};
