/* XPM */
static char * script_xpm[] = {
"16 16 8 1",
" 	c None",
".	c #514C35",
"+	c #7C734C",
"@	c #E0D29D",
"#	c #60593C",
"$	c #D8C98C",
"%	c #D1BD7D",
"&	c #B2A46E",
"  ...........   ",
" .+.@@@@@@@@@.  ",
" ..#.@@@@@@@@@. ",
" .+..@$@$@$@$@. ",
"  ...$@$@$@$@$. ",
"    .@$@$@$@$@. ",
"    .$@$$$@$$$. ",
"    .$$$@$$$@$. ",
"    .$$$$$$$$$. ",
"    .$$$$$$$$$. ",
"  ...$%$$$%$$$. ",
" .+..%$%$%$%$%. ",
" ..#.&%&%&%&%&. ",
" .+.&&&&&&&&&.  ",
"  ...........   ",
"                "};
