/* XPM */
static char * simple_object_xpm[] = {
"16 16 5 1",
" 	c None",
".	c #6D6D6D",
"+	c #FFFFFF",
"@	c #C9C9C9",
"#	c #E2E2E2",
"                ",
"                ",
"                ",
"   .......      ",
"   ..+++++.     ",
"   .@.+++++.    ",
"   .@ .......   ",
"   .@@.#####.   ",
"   .@@.#####.   ",
"   .@@.#####.   ",
"    .@.#####.   ",
"     ..#####.   ",
"      .......   ",
"                ",
"                ",
"                "};
