/* XPM */
static char * text_xpm[] = {
"16 16 7 1",
" 	c None",
".	c #707070",
"+	c #E8E8E8",
"@	c #565656",
"#	c #FFFFFF",
"$	c #898989",
"%	c #636363",
"  .........     ",
"  .+++++++..    ",
"  .++@@@@@.#.   ",
"  .+++++++.##.  ",
"  .+@@@@@@....$ ",
"  .++++++++$$%$ ",
"  .+@@@@@@@@+.$ ",
"  .++++++++++.$ ",
"  .+@@@@@@@@+.$ ",
"  .++++++++++.$ ",
"  .+@@@@@@@@+.$ ",
"  .++++++++++.$ ",
"  .+@@@@@@@@+.$ ",
"  .++++++++++.$ ",
"  ............$ ",
"   $$$$$$$$$$$$ "};
