/* XPM */
static char * up_folder_new_xpm[] = {
"16 16 10 1",
" 	c None",
".	c #6D9EB0",
"+	c #BDE8FC",
"@	c #B0E5FD",
"#	c #000000",
"$	c #BCBCBC",
"%	c #9ADBFD",
"&	c #518598",
"*	c #8CD3FB",
"=	c #3A606D",
"                ",
"  ....          ",
" .++++.         ",
".++++++........ ",
".@@@#@@@@@@@@@.$",
".@@###@@@@@@@@.$",
".%#%#%#%%%%%%%.$",
".%%%#%%%%%%%%%.$",
"&%%%#%%%%%%%%%&$",
"&****#********&$",
"&*****#####***&$",
"=*************=$",
"===============$",
" $$$$$$$$$$$$$$$",
"                ",
"                "};
