/* XPM */
static char * video_xpm[] = {
"16 16 93 2",
"  	c None",
". 	c #686868",
"+ 	c #76A34B",
"@ 	c #76A349",
"# 	c #515151",
"$ 	c #4A4A4A",
"% 	c #444444",
"& 	c #494949",
"* 	c #3C3C3C",
"= 	c #676767",
"- 	c #666666",
"; 	c #656565",
"> 	c #626262",
", 	c #5D5D5D",
"' 	c #565656",
") 	c #4F4F4F",
"! 	c #484848",
"~ 	c #414141",
"{ 	c #3B3B3B",
"] 	c #373737",
"^ 	c #646464",
"/ 	c #616161",
"( 	c #5B5B5B",
"_ 	c #555555",
": 	c #4E4E4E",
"< 	c #464646",
"[ 	c #404040",
"} 	c #3A3A3A",
"| 	c #323232",
"1 	c #9FCAD2",
"2 	c #A4CED5",
"3 	c #A6D1D7",
"4 	c #AAD5DA",
"5 	c #A1CBD3",
"6 	c #A1CCD3",
"7 	c #343434",
"8 	c #313131",
"9 	c #303030",
"0 	c #5C5C5C",
"a 	c #A9D4D9",
"b 	c #AED9DC",
"c 	c #B1DBDE",
"d 	c #B2DDDF",
"e 	c #B1DCDE",
"f 	c #ACD7DB",
"g 	c #2E2E2E",
"h 	c #5F5F5F",
"i 	c #595959",
"j 	c #535353",
"k 	c #ADD7DB",
"l 	c #B0DBDD",
"m 	c #B0DADD",
"n 	c #A5CFD6",
"o 	c #9EC9D2",
"p 	c #2F2F2F",
"q 	c #575757",
"r 	c #93BDCA",
"s 	c #9DC7D0",
"t 	c #A0CBD3",
"u 	c #99C3CE",
"v 	c #8FB9C8",
"w 	c #3F3F3F",
"x 	c #8DB7C6",
"y 	c #8FB9C7",
"z 	c #88B3A4",
"A 	c #7EAA72",
"B 	c #7DA96E",
"C 	c #84AF98",
"D 	c #8CB6C4",
"E 	c #76A34E",
"F 	c #76A34A",
"G 	c #7DA972",
"H 	c #353535",
"I 	c #363636",
"J 	c #76A34D",
"K 	c #333333",
"L 	c #2D2D2D",
"M 	c #383838",
"N 	c #434343",
"O 	c #4D4D4D",
"P 	c #A8D3D8",
"Q 	c #A5D0D6",
"R 	c #ABD6DA",
"S 	c #9AC5CF",
"T 	c #AFDADD",
"U 	c #B0DBDE",
"V 	c #ACD6DB",
"W 	c #9BC5CF",
"X 	c #545454",
"Y 	c #5A5A5A",
"Z 	c #9DC7D1",
"` 	c #9DC8D1",
" .	c #92BDCA",
"  . . . + + @ @ @ @ @ # $ %     ",
"  .   . @ @ @ @ @ @ @ &   *     ",
"  . . = - ; > , ' ) ! ~ { ]     ",
"  .   - ^ / ( _ : < [ }   |     ",
"  - ; > 1 2 3 4 3 5 6 7 8 9     ",
"  ^   0 a b c d e f 4 8   g     ",
"  h i j 5 k l m f n o p g g     ",
"  q   & r s t o u r v g   9     ",
"  : < w x y z A B C D g 9 |     ",
"  %   ] E F @ @ @ @ G 9   H     ",
"  * I 8 @ @ @ @ @ @ J K ] {     ",
"  H   g L L g g 9 | H M   N     ",
"  8 g g L g p 8 K ] { [ < O     ",
"  g   g o P Q 3 R 4 S $   q     ",
"  L g 9 3 e T T U V W X Y h     ",
"  g   | Z P 4 f 3 `  .,   ^     "};
