/* XPM */
static char * wild_xpm[] = {
"16 16 95 2",
"  	c None",
". 	c #484848",
"+ 	c #4A4A4A",
"@ 	c #494949",
"# 	c #474747",
"$ 	c #4B4B4B",
"% 	c #E1E1E1",
"& 	c #E9E9E9",
"* 	c #E7E7E7",
"= 	c #DFDFDF",
"- 	c #D5D5D5",
"; 	c #505050",
"> 	c #707070",
", 	c #D4D4D4",
"' 	c #E3E3E3",
") 	c #F0F0F0",
"! 	c #F2F2F2",
"~ 	c #F1F1F1",
"{ 	c #EBEBEB",
"] 	c #D3D3D3",
"^ 	c #B1B1B1",
"/ 	c #5D5D5D",
"( 	c #D6D6D6",
"_ 	c #DBDBDB",
": 	c #EEEEEE",
"< 	c #F0EDED",
"[ 	c #F2D7D7",
"} 	c #EDEDED",
"| 	c #C0C0C0",
"1 	c #A1A1A1",
"2 	c #565656",
"3 	c #E4E4E4",
"4 	c #FBF4F4",
"5 	c #FEFEFE",
"6 	c #FEE5E5",
"7 	c #FF3D3D",
"8 	c #FFFFFF",
"9 	c #FDFAFA",
"0 	c #D0D0D0",
"a 	c #B5B5B5",
"b 	c #9D9D9D",
"c 	c #E5E5E5",
"d 	c #EFEFEF",
"e 	c #FE7A7A",
"f 	c #FFB8B8",
"g 	c #FFE5E5",
"h 	c #FF7A7A",
"i 	c #C3C3C3",
"j 	c #A4A4A4",
"k 	c #F1EFEF",
"l 	c #FEADAD",
"m 	c #FF5050",
"n 	c #FF5757",
"o 	c #FDADAD",
"p 	c #E5E3E3",
"q 	c #C9C9C9",
"r 	c #ABABAB",
"s 	c #FAFAFA",
"t 	c #FECCCC",
"u 	c #FF4646",
"v 	c #FDFDFD",
"w 	c #ACACAC",
"x 	c #E0E0E0",
"y 	c #EDEAEA",
"z 	c #FE7979",
"A 	c #FE4444",
"B 	c #FF8787",
"C 	c #FF4444",
"D 	c #DFDDDD",
"E 	c #C5C5C5",
"F 	c #D7D7D7",
"G 	c #FFE9E9",
"H 	c #FFEAEA",
"I 	c #FEB0B0",
"J 	c #BEBEBE",
"K 	c #A7A7A7",
"L 	c #DCDCDC",
"M 	c #FBFBFB",
"N 	c #FDE9E9",
"O 	c #FE5D5D",
"P 	c #FAE6E6",
"Q 	c #F9F9F9",
"R 	c #CACACA",
"S 	c #B3B3B3",
"T 	c #A0A0A0",
"U 	c #B2B2B2",
"V 	c #E8E8E8",
"W 	c #B9B9B9",
"X 	c #A3A3A3",
"Y 	c #BABABA",
"Z 	c #CBCBCB",
"` 	c #D2D2D2",
" .	c #C8C8C8",
"..	c #B8B8B8",
"+.	c #A9A9A9",
"        . + + @ + + @           ",
"    # $ % & & & * = - ; #       ",
"  # > , ' ) ! ! ~ { ] ^ / +     ",
"  @ ( _ { : < [ < } = | 1 2     ",
"# 3 3 & 4 5 6 7 6 8 9 0 a b @   ",
"+ c ! d e f g 7 g f h _ i j +   ",
"+ c ! k l m n 7 n m o p q r +   ",
"+ ' ! ) s t u 7 u t v 3 q w +   ",
"# x : y z A B 7 B C z D E w +   ",
"$ F & * o G 6 7 6 H I ( J K +   ",
". , 0 L : M N O P Q { R S T +   ",
"  + U i ( = V * 3 L 0 W X 2     ",
"  + / X Y Z ` , `  ...j / +     ",
"    + + T +.^ S ^ r 1 + +       ",
"        + + + + + + +           ",
"                                "};
